# xmcd CD Database Entry
#
# Track frame offsets:
# 150
# 5275
# 13640
# 19670
# 27992
# 32740
# 41732
# 49410
# 56365
# 63692
# 68912
# 78325
# 87535
# 91857
# 99280
# 111332
#
# Disc length: 1699 seconds
#
# Revision: 0
# Processed by: cddbd v1.4b41PL1 Copyright (c) Steve Scherf et al.
# Submitted via: tcd 2.0b
#
DISCID=c906a110
DTITLE=Gene Autry - The Singing Cowboy
DYEAR=1900
DGENRE=
TTITLE0=Tumbling Tumbleweeds
TTITLE1=Guns and Guitars
TTITLE2=Ride, Ranger, Ride
TTITLE3=Take Me Back To My Boots and Saddle
TTITLE4=Colorado Sunset
TTITLE5=Gaucho Serenade
TTITLE6=Ride, Tenderfoot, Ride
TTITLE7=Melody Ranch
TTITLE8=Back in the Saddle Again
TTITLE9=Down Mexico Way
TTITLE10=Call of The Canyon
TTITLE11=In Old Capistrano
TTITLE12=Sioux City Sue
TTITLE13=(Down The) Trail to San Antone
TTITLE14=Loaded Pistols
TTITLE15=Ghost Riders In The Sky
EXTD=
EXTT0=
EXTT1=
EXTT2=
EXTT3=
EXTT4=
EXTT5=
EXTT6=
EXTT7=
EXTT8=
EXTT9=
EXTT10=
EXTT11=
EXTT12=
EXTT13=
EXTT14=
EXTT15=
PLAYORDER=
